<svg xmlns="http://www.w3.org/2000/svg" width="34" height="34" viewBox="0 0 34 34">
    <g fill="none" fill-opacity=".592" fill-rule="evenodd">
        <g fill="#757575" fill-rule="nonzero">
            <g>
                <path d="M28.7 53.7c1.5 0 2.883-.375 4.15-1.125 1.267-.75 2.275-1.758 3.025-3.025S37 46.9 37 45.4c0-1.5-.375-2.9-1.125-4.2-.75-1.3-1.758-2.325-3.025-3.075S30.2 37 28.7 37c-1.5 0-2.883.375-4.15 1.125-1.267.75-2.275 1.775-3.025 3.075-.75 1.3-1.125 2.7-1.125 4.2s.375 2.883 1.125 4.15c.75 1.267 1.758 2.275 3.025 3.025S27.2 53.7 28.7 53.7zm16.7 16.7v-4.2c0-1.7-1.033-3.233-3.1-4.6-1.733-1.167-4-2.1-6.8-2.8-2.467-.6-4.733-.9-6.8-.9s-4.333.3-6.8.9c-2.8.7-5.067 1.633-6.8 2.8-2.067 1.367-3.1 2.9-3.1 4.6v4.2h33.4z" transform="translate(-52 -238) translate(40 201)"/>
            </g>
        </g>
    </g>
</svg>
