<svg xmlns="http://www.w3.org/2000/svg" xmlns:xlink="http://www.w3.org/1999/xlink" width="24" height="24" viewBox="0 0 24 24">
    <defs>
        <path id="kaape4e9ta" d="M0 0H24V24H0z"/>
    </defs>
    <g fill="none" fill-rule="evenodd">
        <g>
            <g>
                <g>
                    <g transform="translate(-312 -754) translate(0 737) translate(288 17) translate(24)">
                        <mask id="w9o8vpl1nb" fill="#fff">
                            <use xlink:href="#kaape4e9ta"/>
                        </mask>
                        <path fill="#757575" d="M7 7c0 2.757 2.243 5 5 5s5-2.243 5-5-2.243-5-5-5-5 2.243-5 5zm2 0c0-1.654 1.346-3 3-3s3 1.346 3 3-1.346 3-3 3-3-1.346-3-3zm12 13c0-3.859-3.141-7-7-7h-4c-3.86 0-7 3.141-7 7v1h2v-1c0-2.757 2.243-5 5-5h4c2.757 0 5 2.243 5 5v1h2v-1z" mask="url(#w9o8vpl1nb)"/>
                    </g>
                </g>
            </g>
        </g>
    </g>
</svg>
