<svg xmlns="http://www.w3.org/2000/svg" width="29" height="30" viewBox="0 0 29 30">
    <g fill="none" fill-rule="evenodd">
        <g fill-rule="nonzero">
            <g>
                <g>
                    <path fill="#4285F4" d="M27.904 14.553c0-1.17-.095-2.025-.3-2.91H14.236v5.283h7.846c-.159 1.313-1.013 3.29-2.911 4.619l-.027.177 4.227 3.274.292.029c2.69-2.484 4.24-6.138 4.24-10.472" transform="translate(-66 -471) translate(40 457) translate(26.286 14.286)"/>
                    <path fill="#34A853" d="M14.237 28.473c3.843 0 7.07-1.265 9.427-3.448l-4.492-3.48c-1.202.838-2.816 1.423-4.935 1.423-3.765 0-6.96-2.483-8.1-5.916l-.166.015-4.395 3.4-.057.16c2.34 4.65 7.15 7.846 12.718 7.846" transform="translate(-66 -471) translate(40 457) translate(26.286 14.286)"/>
                    <path fill="#FBBC05" d="M6.138 17.052c-.301-.885-.475-1.835-.475-2.815 0-.981.174-1.93.459-2.816l-.008-.189-4.45-3.455-.145.069C.554 9.776 0 11.943 0 14.236c0 2.294.554 4.461 1.519 6.391l4.619-3.575" transform="translate(-66 -471) translate(40 457) translate(26.286 14.286)"/>
                    <path fill="#EB4335" d="M14.237 5.505c2.673 0 4.476 1.155 5.504 2.12l4.018-3.923C21.292 1.408 18.08 0 14.237 0 8.668 0 3.86 3.195 1.519 7.846l4.603 3.575c1.155-3.433 4.35-5.916 8.115-5.916" transform="translate(-66 -471) translate(40 457) translate(26.286 14.286)"/>
                </g>
            </g>
        </g>
    </g>
</svg>
